<svg width="25" height="26" viewBox="0 0 25 26" fill="none" xmlns="http://www.w3.org/2000/svg">
<path d="M22.3214 0.5H2.67857C1.19978 0.5 0 1.69978 0 3.17857V22.8214C0 24.3002 1.19978 25.5 2.67857 25.5H22.3214C23.8002 25.5 25 24.3002 25 22.8214V3.17857C25 1.69978 23.8002 0.5 22.3214 0.5ZM15.4743 21.9118C15.0056 21.9955 14.8326 21.7054 14.8326 21.4654C14.8326 21.1641 14.8438 19.6239 14.8438 18.3795C14.8438 17.5089 14.5536 16.9565 14.2132 16.6663C16.2779 16.4375 18.4542 16.1529 18.4542 12.5871C18.4542 11.5714 18.0915 11.0636 17.5 10.4107C17.5949 10.1708 17.9129 9.18304 17.4051 7.89955C16.6295 7.6596 14.8549 8.89844 14.8549 8.89844C14.1183 8.69197 13.3203 8.58594 12.5335 8.58594C11.7467 8.58594 10.9487 8.69197 10.2121 8.89844C10.2121 8.89844 8.4375 7.6596 7.66183 7.89955C7.15402 9.17746 7.46652 10.1652 7.56697 10.4107C6.97545 11.0636 6.69643 11.5714 6.69643 12.5871C6.69643 16.1362 8.7779 16.4375 10.8426 16.6663C10.5748 16.9063 10.3348 17.3192 10.2511 17.9107C9.72098 18.1507 8.36496 18.5636 7.5558 17.135C7.04799 16.2533 6.13281 16.1808 6.13281 16.1808C5.2288 16.1696 6.07143 16.75 6.07143 16.75C6.67411 17.029 7.09821 18.1004 7.09821 18.1004C7.63951 19.7578 10.2288 19.1998 10.2288 19.1998C10.2288 19.9754 10.24 21.2366 10.24 21.4654C10.24 21.7054 10.0725 21.9955 9.59822 21.9118C5.91518 20.6786 3.33705 17.1741 3.33705 13.0781C3.33705 7.95536 7.25446 4.06585 12.3772 4.06585C17.5 4.06585 21.6518 7.95536 21.6518 13.0781C21.6574 17.1741 19.1574 20.6842 15.4743 21.9118ZM10 18.5022C9.89397 18.5246 9.79353 18.4799 9.78237 18.4074C9.77121 18.3237 9.84375 18.2511 9.94978 18.2288C10.0558 18.2176 10.1562 18.2623 10.1674 18.3348C10.1842 18.4074 10.1116 18.4799 10 18.5022ZM9.46987 18.452C9.46987 18.5246 9.38616 18.5859 9.27455 18.5859C9.15179 18.5971 9.06808 18.5357 9.06808 18.452C9.06808 18.3795 9.15179 18.3181 9.26339 18.3181C9.36942 18.3069 9.46987 18.3683 9.46987 18.452ZM8.70536 18.3906C8.68304 18.4632 8.57143 18.4967 8.47656 18.4632C8.37054 18.4408 8.29799 18.3571 8.32031 18.2846C8.34264 18.2121 8.45424 18.1786 8.54911 18.2009C8.66071 18.2344 8.73326 18.3181 8.70536 18.3906ZM8.01897 18.0893C7.96875 18.1507 7.86272 18.1395 7.77902 18.0558C7.69531 17.9833 7.67299 17.8772 7.7288 17.827C7.77902 17.7656 7.88505 17.7768 7.96875 17.8605C8.0413 17.933 8.0692 18.0446 8.01897 18.0893ZM7.51116 17.5815C7.46094 17.615 7.36607 17.5815 7.30469 17.4978C7.2433 17.4141 7.2433 17.3192 7.30469 17.2801C7.36607 17.2299 7.46094 17.269 7.51116 17.3527C7.57255 17.4364 7.57255 17.5368 7.51116 17.5815ZM7.14844 17.0402C7.09822 17.0904 7.01451 17.0625 6.95313 17.0067C6.89174 16.9342 6.88058 16.8504 6.9308 16.8114C6.98103 16.7612 7.06473 16.7891 7.12612 16.8449C7.1875 16.9174 7.19866 17.0011 7.14844 17.0402ZM6.77455 16.6272C6.75223 16.6775 6.67969 16.6886 6.6183 16.6496C6.54576 16.6161 6.51228 16.5547 6.5346 16.5045C6.55692 16.471 6.6183 16.4542 6.69085 16.4821C6.76339 16.5212 6.79688 16.5826 6.77455 16.6272Z" fill="#918E9B"/>
</svg>
