<svg width="25" height="26" viewBox="0 0 25 26" fill="none" xmlns="http://www.w3.org/2000/svg">
<path d="M12.5 10.0234C11.9113 10.0237 11.336 10.1984 10.8466 10.5256C10.3573 10.8528 9.97593 11.3178 9.75081 11.8617C9.52569 12.4056 9.46691 13.0041 9.58188 13.5814C9.69686 14.1587 9.98044 14.689 10.3968 15.1051C10.8131 15.5213 11.3435 15.8047 11.9208 15.9195C12.4982 16.0342 13.0966 15.9752 13.6405 15.7499C14.1843 15.5246 14.6491 15.143 14.9761 14.6536C15.3031 14.1641 15.4777 13.5887 15.4777 13C15.4771 12.2106 15.1631 11.4536 14.6048 10.8955C14.0465 10.3374 13.2894 10.0237 12.5 10.0234ZM19.4593 7.73549C19.3077 7.35148 19.0789 7.00269 18.787 6.71077C18.4951 6.41886 18.1463 6.19004 17.7623 6.0385C16.5904 5.57589 13.8002 5.67969 12.5 5.67969C11.1998 5.67969 8.41239 5.57199 7.23717 6.0385C6.85315 6.19004 6.50436 6.41886 6.21245 6.71077C5.92053 7.00269 5.69171 7.35148 5.54018 7.73549C5.07812 8.90737 5.18136 11.7003 5.18136 12.9994C5.18136 14.2986 5.07813 17.0882 5.54241 18.264C5.69394 18.648 5.92276 18.9968 6.21468 19.2887C6.5066 19.5806 6.85538 19.8094 7.2394 19.9609C8.41127 20.4235 11.2015 20.3198 12.5022 20.3198C13.803 20.3198 16.5893 20.4275 17.7645 19.9609C18.1485 19.8094 18.4973 19.5806 18.7892 19.2887C19.0811 18.9968 19.31 18.648 19.4615 18.264C19.9275 17.0921 19.8203 14.2991 19.8203 13C19.8203 11.7009 19.9275 8.91183 19.4615 7.73605L19.4593 7.73549ZM12.5 17.5759C11.595 17.5759 10.7103 17.3075 9.95777 16.8047C9.20527 16.3019 8.61877 15.5873 8.27243 14.7511C7.92609 13.915 7.83547 12.9949 8.01203 12.1073C8.18859 11.2197 8.62441 10.4043 9.26436 9.76436C9.90431 9.12441 10.7197 8.68859 11.6073 8.51203C12.4949 8.33547 13.415 8.42609 14.2511 8.77243C15.0873 9.11877 15.8019 9.70527 16.3047 10.4578C16.8075 11.2103 17.0759 12.095 17.0759 13C17.0766 13.6011 16.9588 14.1965 16.7291 14.752C16.4994 15.3075 16.1623 15.8122 15.7373 16.2373C15.3122 16.6623 14.8075 16.9994 14.252 17.2291C13.6965 17.4588 13.1011 17.5766 12.5 17.5759ZM17.2645 9.30022C17.0532 9.30033 16.8467 9.23779 16.671 9.12049C16.4952 9.0032 16.3583 8.83642 16.2773 8.64127C16.1964 8.44611 16.1752 8.23134 16.2163 8.02411C16.2575 7.81689 16.3592 7.62652 16.5085 7.47709C16.6579 7.32766 16.8482 7.22588 17.0554 7.18463C17.2626 7.14337 17.4774 7.16449 17.6726 7.24531C17.8678 7.32614 18.0346 7.46304 18.152 7.63869C18.2694 7.81435 18.332 8.02087 18.332 8.23214C18.3326 8.37244 18.3055 8.51147 18.2522 8.64127C18.199 8.77106 18.1206 8.88906 18.0216 8.9885C17.9227 9.08794 17.805 9.16686 17.6755 9.22074C17.5459 9.27461 17.407 9.30238 17.2667 9.30246L17.2645 9.30022ZM22.3214 0.5H2.67857C1.96817 0.5 1.28686 0.782206 0.784535 1.28454C0.282206 1.78687 0 2.46817 0 3.17857L0 22.8214C0 23.5318 0.282206 24.2131 0.784535 24.7155C1.28686 25.2178 1.96817 25.5 2.67857 25.5H22.3214C23.0318 25.5 23.7131 25.2178 24.2155 24.7155C24.7178 24.2131 25 23.5318 25 22.8214V3.17857C25 2.46817 24.7178 1.78687 24.2155 1.28454C23.7131 0.782206 23.0318 0.5 22.3214 0.5ZM21.3661 16.683C21.2941 18.1133 20.9676 19.3806 19.9235 20.4219C18.8795 21.4632 17.6133 21.7963 16.1847 21.8644C14.7109 21.9475 10.2924 21.9475 8.81864 21.8644C7.38839 21.7924 6.12556 21.4654 5.0798 20.4219C4.03404 19.3783 3.70536 18.1105 3.63728 16.683C3.55413 15.2087 3.55413 10.7896 3.63728 9.31697C3.70926 7.88672 4.03181 6.61942 5.0798 5.57813C6.12779 4.53683 7.39397 4.20759 8.81864 4.13951C10.2924 4.05636 14.7109 4.05636 16.1847 4.13951C17.615 4.2115 18.8817 4.5385 19.9235 5.58203C20.9654 6.62556 21.298 7.89342 21.3661 9.32366C21.4492 10.7924 21.4492 15.2076 21.3661 16.683Z" fill="#918E9B"/>
</svg>
